<svg xmlns="http://www.w3.org/2000/svg" xmlns:xlink="http://www.w3.org/1999/xlink" width="960" height="667.88"><rect width="960" height="667.88" rx="5" ry="5" class="a"/><svg y="0%" x="0%"><circle cx="20" cy="20" r="6" fill="#ff5f58"/><circle cx="40" cy="20" r="6" fill="#ffbd2e"/><circle cx="60" cy="20" r="6" fill="#18c132"/></svg><svg height="607.88" viewBox="0 0 92 60.788" width="920" x="15" xmlns="http://www.w3.org/2000/svg" xmlns:xlink="http://www.w3.org/1999/xlink" y="50"><style>@keyframes m{0%{transform:translateX(0)}2.22%{transform:translateX(-92px)}4.44%{transform:translateX(-184px)}20%{transform:translateX(-276px)}22.22%{transform:translateX(-368px)}44.44%{transform:translateX(-460px)}48%{transform:translateX(-552px)}55.56%{transform:translateX(-644px)}57.78%{transform:translateX(-736px)}68.89%{transform:translateX(-828px)}71.11%{transform:translateX(-920px)}86.67%{transform:translateX(-1012px)}88.89%{transform:translateX(-1104px)}97.78%{transform:translateX(-1196px)}to{transform:translateX(-1288px)}}.a{fill:#282d35}.f{fill:#6f7783;white-space:pre}.g{font-weight:700}.g,.h,.i,.j,.k{fill:#b9c0cb;white-space:pre}.i,.j,.k{fill:#dbab79}.j,.k{fill:#a8cc8c}.k{fill:#66c2cd}</style><g font-family="Monaco,Consolas,Menlo,'Bitstream Vera Sans Mono','Powerline Symbols',monospace" font-size="1.67"><defs><symbol id="1"><text y="1.67" class="f">$</text><text x="2.004" y="1.67" class="g">mcpctl</text><text x="9.018" y="1.67" class="g">doctor</text></symbol><symbol id="2"><text y="1.67" class="g">claude-code</text><text x="12.024" y="1.67" class="f">not</text><text x="16.032" y="1.67" class="f">found</text><text x="23.046" y="1.67" class="h">/home/you/.claude.json</text><text x="46.092" y="1.67" class="i">(read-only)</text></symbol><symbol id="3"><text y="1.67" class="g">cursor</text><text x="9.018" y="1.67" class="j">installed</text><text x="20.04" y="1.67" class="h">/home/you/.cursor/mcp.json</text></symbol><symbol id="4"><text y="1.67" class="g">claude-desktop</text><text x="15.03" y="1.67" class="f">not</text><text x="19.038" y="1.67" class="f">found</text><text x="26.052" y="1.67" class="h">/home/you/.config/Claude/claude_desktop_config.json</text></symbol><symbol id="5"><text y="1.67" class="g">codex</text><text x="9.018" y="1.67" class="j">installed</text><text x="20.04" y="1.67" class="h">/home/you/.codex/config.toml</text><text x="49.098" y="1.67" class="i">(read-only)</text></symbol><symbol id="6"><text y="1.67" class="f">$</text><text x="2.004" y="1.67" class="g">mcpctl</text><text x="9.018" y="1.67" class="g">list</text></symbol><symbol id="7"><text y="1.67" class="f">#</text><text x="2.004" y="1.67" class="g">Claude</text><text x="9.018" y="1.67" class="g">Code</text><text x="14.028" y="1.67" class="h">???</text><text x="18.036" y="1.67" class="f">/home/you/.claude.json</text></symbol><symbol id="8"><text x="2.004" y="1.67" class="f">(no</text><text x="6.012" y="1.67" class="f">servers)</text></symbol><symbol id="9"><text y="1.67" class="f">#</text><text x="2.004" y="1.67" class="g">Cursor</text><text x="9.018" y="1.67" class="h">???</text><text x="13.026" y="1.67" class="f">/home/you/.cursor/mcp.json</text></symbol><symbol id="10"><text x="2.004" y="1.67" class="j">filesystem</text><text x="14.028" y="1.67" class="k">[stdio]</text><text x="22.044" y="1.67" class="f">npx</text><text x="26.052" y="1.67" class="f">-y</text><text x="29.058" y="1.67" class="f">@modelcontextprotocol/server-filesystem</text><text x="69.138" y="1.67" class="f">/tmp</text></symbol><symbol id="11"><text x="2.004" y="1.67" class="j">github</text><text x="14.028" y="1.67" class="k">[stdio]</text><text x="22.044" y="1.67" class="f">npx</text><text x="26.052" y="1.67" class="f">-y</text><text x="29.058" y="1.67" class="f">@modelcontextprotocol/server-github</text></symbol><symbol id="12"><text y="1.67" class="f">#</text><text x="2.004" y="1.67" class="g">Claude</text><text x="9.018" y="1.67" class="g">Desktop</text><text x="17.034" y="1.67" class="h">???</text><text x="21.042" y="1.67" class="f">/home/you/.config/Claude/claude_desktop_config.json</text></symbol><symbol id="13"><text y="1.67" class="f">#</text><text x="2.004" y="1.67" class="g">Codex</text><text x="8.016" y="1.67" class="h">???</text><text x="12.024" y="1.67" class="f">/home/you/.codex/config.toml</text></symbol><symbol id="14"><text x="2.004" y="1.67" class="j">memory</text><text x="14.028" y="1.67" class="k">[http]</text><text x="21.042" y="1.67" class="f">https://mcp.example.com/sse</text></symbol><symbol id="15"><text y="1.67" class="f">$</text><text x="2.004" y="1.67" class="g">mcpctl</text><text x="9.018" y="1.67" class="g">add</text><text x="13.026" y="1.67" class="g">memory</text><text x="20.04" y="1.67" class="g">--client</text><text x="29.058" y="1.67" class="g">cursor</text><text x="36.072" y="1.67" class="g">--url</text><text x="42.084" y="1.67" class="g">https://mcp.example.com/sse</text></symbol><symbol id="16"><text y="1.67" class="j">added</text><text x="6.012" y="1.67" class="h">&quot;memory&quot;</text><text x="15.03" y="1.67" class="f">to</text><text x="18.036" y="1.67" class="g">cursor</text></symbol><symbol id="17"><text y="1.67" class="f">$</text><text x="2.004" y="1.67" class="g">mcpctl</text><text x="9.018" y="1.67" class="g">list</text><text x="14.028" y="1.67" class="g">--client</text><text x="23.046" y="1.67" class="g">cursor</text></symbol><symbol id="18"><text y="1.67" class="f">$</text><text x="2.004" y="1.67" class="g">mcpctl</text><text x="9.018" y="1.67" class="g">show</text><text x="14.028" y="1.67" class="g">filesystem</text><text x="25.05" y="1.67" class="g">--client</text><text x="34.068" y="1.67" class="g">cursor</text></symbol><symbol id="19"><text y="1.67" class="f">client:</text><text x="8.016" y="1.67" class="g">cursor</text><text x="15.03" y="1.67" class="h">(</text><text x="16.032" y="1.67" class="f">/home/you/.cursor/mcp.json</text><text x="42.084" y="1.67" class="h">)</text></symbol><symbol id="20"><text y="1.67" class="f">name:</text><text x="9.018" y="1.67" class="j">filesystem</text></symbol><symbol id="21"><text y="1.67" class="f">transport:</text><text x="11.022" y="1.67" class="k">stdio</text></symbol><symbol id="22"><text y="1.67" class="f">command:</text><text x="9.018" y="1.67" class="h">npx</text></symbol><symbol id="23"><text y="1.67" class="f">args:</text><text x="9.018" y="1.67" class="h">-y</text><text x="12.024" y="1.67" class="h">@modelcontextprotocol/server-filesystem</text><text x="52.104" y="1.67" class="h">/tmp</text></symbol><symbol id="24"><text y="1.67" class="f">$</text><text x="2.004" y="1.67" class="g">mcpctl</text><text x="9.018" y="1.67" class="g">rm</text><text x="12.024" y="1.67" class="g">memory</text><text x="19.038" y="1.67" class="g">--client</text><text x="28.056" y="1.67" class="g">cursor</text></symbol><symbol id="25"><text y="1.67" class="j">removed</text><text x="8.016" y="1.67" class="h">&quot;memory&quot;</text><text x="17.034" y="1.67" class="f">from</text><text x="22.044" y="1.67" class="g">cursor</text></symbol><symbol id="a"><path fill="transparent" d="M0 0h92v28H0z"/></symbol></defs><path class="a" d="M0 0h92v60.788H0z"/><g style="animation-duration:22.5s;animation-iteration-count:infinite;animation-name:m;animation-timing-function:steps(1,end)"><svg width="1380"><svg><use xlink:href="#a"/></svg><svg x="92"><use xlink:href="#a"/><use xlink:href="#1"/></svg><svg x="184"><use xlink:href="#a"/><use xlink:href="#1"/><use xlink:href="#2" y="2.171"/><use xlink:href="#3" y="4.342"/><use xlink:href="#4" y="6.513"/><use xlink:href="#5" y="8.684"/></svg><svg x="276"><use xlink:href="#a"/><use xlink:href="#1"/><use xlink:href="#2" y="2.171"/><use xlink:href="#3" y="4.342"/><use xlink:href="#4" y="6.513"/><use xlink:href="#5" y="8.684"/><use xlink:href="#6" y="10.855"/></svg><svg x="368"><use xlink:href="#a"/><use xlink:href="#1"/><use xlink:href="#2" y="2.171"/><use xlink:href="#3" y="4.342"/><use xlink:href="#4" y="6.513"/><use xlink:href="#5" y="8.684"/><use xlink:href="#6" y="10.855"/><use xlink:href="#7" y="13.026"/><use xlink:href="#8" y="15.197"/><use xlink:href="#9" y="19.539"/><use xlink:href="#10" y="21.71"/><use xlink:href="#11" y="23.881"/><use xlink:href="#12" y="28.223"/><use xlink:href="#8" y="30.394"/><use xlink:href="#13" y="34.736"/><use xlink:href="#14" y="36.907"/></svg><svg x="460"><use xlink:href="#a"/><use xlink:href="#1"/><use xlink:href="#2" y="2.171"/><use xlink:href="#3" y="4.342"/><use xlink:href="#4" y="6.513"/><use xlink:href="#5" y="8.684"/><use xlink:href="#6" y="10.855"/><use xlink:href="#7" y="13.026"/><use xlink:href="#8" y="15.197"/><use xlink:href="#9" y="19.539"/><use xlink:href="#10" y="21.71"/><use xlink:href="#11" y="23.881"/><use xlink:href="#12" y="28.223"/><use xlink:href="#8" y="30.394"/><use xlink:href="#13" y="34.736"/><use xlink:href="#14" y="36.907"/><use xlink:href="#15" y="41.249"/></svg><svg x="552"><use xlink:href="#a"/><use xlink:href="#1"/><use xlink:href="#2" y="2.171"/><use xlink:href="#3" y="4.342"/><use xlink:href="#4" y="6.513"/><use xlink:href="#5" y="8.684"/><use xlink:href="#6" y="10.855"/><use xlink:href="#7" y="13.026"/><use xlink:href="#8" y="15.197"/><use xlink:href="#9" y="19.539"/><use xlink:href="#10" y="21.71"/><use xlink:href="#11" y="23.881"/><use xlink:href="#12" y="28.223"/><use xlink:href="#8" y="30.394"/><use xlink:href="#13" y="34.736"/><use xlink:href="#14" y="36.907"/><use xlink:href="#15" y="41.249"/><use xlink:href="#16" y="43.42"/></svg><svg x="644"><use xlink:href="#a"/><use xlink:href="#1"/><use xlink:href="#2" y="2.171"/><use xlink:href="#3" y="4.342"/><use xlink:href="#4" y="6.513"/><use xlink:href="#5" y="8.684"/><use xlink:href="#6" y="10.855"/><use xlink:href="#7" y="13.026"/><use xlink:href="#8" y="15.197"/><use xlink:href="#9" y="19.539"/><use xlink:href="#10" y="21.71"/><use xlink:href="#11" y="23.881"/><use xlink:href="#12" y="28.223"/><use xlink:href="#8" y="30.394"/><use xlink:href="#13" y="34.736"/><use xlink:href="#14" y="36.907"/><use xlink:href="#15" y="41.249"/><use xlink:href="#16" y="43.42"/><use xlink:href="#17" y="45.591"/></svg><svg x="736"><use xlink:href="#a"/><use xlink:href="#1"/><use xlink:href="#2" y="2.171"/><use xlink:href="#3" y="4.342"/><use xlink:href="#4" y="6.513"/><use xlink:href="#5" y="8.684"/><use xlink:href="#6" y="10.855"/><use xlink:href="#7" y="13.026"/><use xlink:href="#8" y="15.197"/><use xlink:href="#9" y="19.539"/><use xlink:href="#10" y="21.71"/><use xlink:href="#11" y="23.881"/><use xlink:href="#12" y="28.223"/><use xlink:href="#8" y="30.394"/><use xlink:href="#13" y="34.736"/><use xlink:href="#14" y="36.907"/><use xlink:href="#15" y="41.249"/><use xlink:href="#16" y="43.42"/><use xlink:href="#17" y="45.591"/><use xlink:href="#9" y="47.762"/><use xlink:href="#10" y="49.933"/><use xlink:href="#11" y="52.104"/><use xlink:href="#14" y="54.275"/></svg><svg x="828"><use xlink:href="#a"/><use xlink:href="#2"/><use xlink:href="#3" y="2.171"/><use xlink:href="#4" y="4.342"/><use xlink:href="#5" y="6.513"/><use xlink:href="#6" y="8.684"/><use xlink:href="#7" y="10.855"/><use xlink:href="#8" y="13.026"/><use xlink:href="#9" y="17.368"/><use xlink:href="#10" y="19.539"/><use xlink:href="#11" y="21.71"/><use xlink:href="#12" y="26.052"/><use xlink:href="#8" y="28.223"/><use xlink:href="#13" y="32.565"/><use xlink:href="#14" y="34.736"/><use xlink:href="#15" y="39.078"/><use xlink:href="#16" y="41.249"/><use xlink:href="#17" y="43.42"/><use xlink:href="#9" y="45.591"/><use xlink:href="#10" y="47.762"/><use xlink:href="#11" y="49.933"/><use xlink:href="#14" y="52.104"/><use xlink:href="#18" y="56.446"/></svg><svg x="920"><use xlink:href="#a"/><use xlink:href="#7"/><use xlink:href="#8" y="2.171"/><use xlink:href="#9" y="6.513"/><use xlink:href="#10" y="8.684"/><use xlink:href="#11" y="10.855"/><use xlink:href="#12" y="15.197"/><use xlink:href="#8" y="17.368"/><use xlink:href="#13" y="21.71"/><use xlink:href="#14" y="23.881"/><use xlink:href="#15" y="28.223"/><use xlink:href="#16" y="30.394"/><use xlink:href="#17" y="32.565"/><use xlink:href="#9" y="34.736"/><use xlink:href="#10" y="36.907"/><use xlink:href="#11" y="39.078"/><use xlink:href="#14" y="41.249"/><use xlink:href="#18" y="45.591"/><use xlink:href="#19" y="47.762"/><use xlink:href="#20" y="49.933"/><use xlink:href="#21" y="52.104"/><use xlink:href="#22" y="54.275"/><use xlink:href="#23" y="56.446"/></svg><svg x="1012"><use xlink:href="#a"/><use xlink:href="#8"/><use xlink:href="#9" y="4.342"/><use xlink:href="#10" y="6.513"/><use xlink:href="#11" y="8.684"/><use xlink:href="#12" y="13.026"/><use xlink:href="#8" y="15.197"/><use xlink:href="#13" y="19.539"/><use xlink:href="#14" y="21.71"/><use xlink:href="#15" y="26.052"/><use xlink:href="#16" y="28.223"/><use xlink:href="#17" y="30.394"/><use xlink:href="#9" y="32.565"/><use xlink:href="#10" y="34.736"/><use xlink:href="#11" y="36.907"/><use xlink:href="#14" y="39.078"/><use xlink:href="#18" y="43.42"/><use xlink:href="#19" y="45.591"/><use xlink:href="#20" y="47.762"/><use xlink:href="#21" y="49.933"/><use xlink:href="#22" y="52.104"/><use xlink:href="#23" y="54.275"/><use xlink:href="#24" y="56.446"/></svg><svg x="1104"><use xlink:href="#a"/><use xlink:href="#9" y="2.171"/><use xlink:href="#10" y="4.342"/><use xlink:href="#11" y="6.513"/><use xlink:href="#12" y="10.855"/><use xlink:href="#8" y="13.026"/><use xlink:href="#13" y="17.368"/><use xlink:href="#14" y="19.539"/><use xlink:href="#15" y="23.881"/><use xlink:href="#16" y="26.052"/><use xlink:href="#17" y="28.223"/><use xlink:href="#9" y="30.394"/><use xlink:href="#10" y="32.565"/><use xlink:href="#11" y="34.736"/><use xlink:href="#14" y="36.907"/><use xlink:href="#18" y="41.249"/><use xlink:href="#19" y="43.42"/><use xlink:href="#20" y="45.591"/><use xlink:href="#21" y="47.762"/><use xlink:href="#22" y="49.933"/><use xlink:href="#23" y="52.104"/><use xlink:href="#24" y="54.275"/><use xlink:href="#25" y="56.446"/></svg><svg x="1196"><use xlink:href="#a"/><use xlink:href="#9"/><use xlink:href="#10" y="2.171"/><use xlink:href="#11" y="4.342"/><use xlink:href="#12" y="8.684"/><use xlink:href="#8" y="10.855"/><use xlink:href="#13" y="15.197"/><use xlink:href="#14" y="17.368"/><use xlink:href="#15" y="21.71"/><use xlink:href="#16" y="23.881"/><use xlink:href="#17" y="26.052"/><use xlink:href="#9" y="28.223"/><use xlink:href="#10" y="30.394"/><use xlink:href="#11" y="32.565"/><use xlink:href="#14" y="34.736"/><use xlink:href="#18" y="39.078"/><use xlink:href="#19" y="41.249"/><use xlink:href="#20" y="43.42"/><use xlink:href="#21" y="45.591"/><use xlink:href="#22" y="47.762"/><use xlink:href="#23" y="49.933"/><use xlink:href="#24" y="52.104"/><use xlink:href="#25" y="54.275"/><use xlink:href="#17" y="56.446"/></svg><svg x="1288"><use xlink:href="#a"/><use xlink:href="#12"/><use xlink:href="#8" y="2.171"/><use xlink:href="#13" y="6.513"/><use xlink:href="#14" y="8.684"/><use xlink:href="#15" y="13.026"/><use xlink:href="#16" y="15.197"/><use xlink:href="#17" y="17.368"/><use xlink:href="#9" y="19.539"/><use xlink:href="#10" y="21.71"/><use xlink:href="#11" y="23.881"/><use xlink:href="#14" y="26.052"/><use xlink:href="#18" y="30.394"/><use xlink:href="#19" y="32.565"/><use xlink:href="#20" y="34.736"/><use xlink:href="#21" y="36.907"/><use xlink:href="#22" y="39.078"/><use xlink:href="#23" y="41.249"/><use xlink:href="#24" y="43.42"/><use xlink:href="#25" y="45.591"/><use xlink:href="#17" y="47.762"/><use xlink:href="#9" y="49.933"/><use xlink:href="#10" y="52.104"/><use xlink:href="#11" y="54.275"/></svg></svg></g></g></svg></svg>